# xmcd
#
# Track frame offsets:
# 150
# 23894
# 45306
# 63988
# 83639
# 105497
# 128184
# 145578
# 167342
# 190872
# 208545
# 227499
# 246829
# 266941
# 289188
# 310246
#
# Disc length: 4403 seconds
#
# Revision: 0
# Processed by: cddbd v1.4PL0 Copyright (c) Steve Scherf et al.
# Submitted via: Audion 2.6.0 (http://www.panic.com/audion/)
#
DISCID=d4113110
DTITLE=CD - CD
DYEAR=1900
DGENRE=
TTITLE0=C
TTITLE1=c
TTITLE2=c
TTITLE3=c
TTITLE4=c
TTITLE5=c
TTITLE6=c
TTITLE7=c
TTITLE8=c
TTITLE9=c
TTITLE10=c
TTITLE11=c
TTITLE12=c
TTITLE13=c
TTITLE14=c
TTITLE15=c
EXTD=
EXTT0=
EXTT1=
EXTT2=
EXTT3=
EXTT4=
EXTT5=
EXTT6=
EXTT7=
EXTT8=
EXTT9=
EXTT10=
EXTT11=
EXTT12=
EXTT13=
EXTT14=
EXTT15=
PLAYORDER=
